<svg width="481" height="141" viewBox="0 0 481 141" fill="none" xmlns="http://www.w3.org/2000/svg">
<path d="M0.813391 23.0939C0.750818 23.0317 0.688245 22.9696 0.625671 22.8608C0.625671 22.7987 0.625671 22.6744 0.688245 22.6123C0.750818 22.5502 0.813391 22.488 0.922894 22.4259C6.25726 21.1054 11.7793 20.2045 17.2858 19.7229C19.8982 19.5365 22.495 19.3656 25.1074 19.3035C25.7175 17.0199 26.265 14.7208 26.922 12.4994C27.6416 9.84301 28.5646 7.20216 29.5971 4.60791C29.8943 4.00207 30.2071 3.34963 30.6295 2.68165C30.8172 2.38649 31.0519 2.0758 31.4117 1.78065C31.5994 1.59424 31.834 1.4855 32.2564 1.36122C32.319 1.36122 32.4441 1.36122 32.5536 1.36122C32.5536 1.36122 32.6162 1.36122 32.6788 1.36122C32.6788 1.42336 32.6788 1.42336 32.6788 1.42336H32.8039C32.8039 1.42336 32.8039 1.42336 32.8665 1.42336V1.4855C33.0542 1.54763 33.1637 1.60977 33.2263 1.71851C33.2889 1.82725 33.3514 1.90493 33.3514 2.01367C33.3514 2.12241 33.414 2.26222 33.414 2.30882C33.3514 2.54184 33.3514 2.79039 33.2889 2.91466C33.2889 2.9768 33.2889 2.9768 33.2889 3.03894C33.2263 3.22535 33.1637 3.39623 33.0542 3.5205C32.9291 3.81566 32.8039 4.12635 32.6944 4.35936C32.6944 4.4215 32.6319 4.48364 32.6319 4.48364C32.3972 4.9652 32.1469 5.38463 31.9123 5.80406C31.8497 5.99047 31.7245 6.16135 31.662 6.34777C31.177 7.24876 30.6921 8.14976 30.2697 9.05075C30.082 9.34591 29.9099 9.65659 29.7848 10.0139C29.1903 11.179 28.6428 12.313 28.1579 13.5247C27.6104 15.4509 27.1254 17.3151 26.6405 19.2413C29.0652 19.1792 31.4899 19.1792 33.9146 19.2413C38.2165 19.3035 42.4558 19.5986 46.7734 20.018C47.1332 19.0549 47.5556 18.0296 47.9779 17.0665C48.7132 15.4354 49.5579 13.882 50.5904 12.313C51.0753 11.5984 51.748 10.8683 52.5301 10.2624C52.9525 9.96728 53.4374 9.71873 53.9849 9.59446C54.2822 9.47018 54.595 9.47018 54.9548 9.59446C55.3146 9.65659 55.5649 9.84301 55.7996 10.076C56.2219 10.5576 56.4722 11.0392 56.5348 11.5829C56.6599 12.0644 56.7225 12.546 56.7225 12.9654C56.7225 13.9286 56.7225 14.8295 56.5974 15.6684C56.3627 17.4704 56.0499 19.2258 55.6901 20.9656C55.6901 20.9656 55.6275 21.0278 55.6275 21.0899C55.6275 21.1521 55.6275 21.2142 55.6275 21.2142C56.66 21.4006 57.6924 21.6336 58.7249 21.8822C60.0545 22.1773 61.4468 22.5502 62.7921 23.0317C63.4648 23.2181 64.1218 23.5133 64.7945 23.8706H64.857C65.1543 24.057 65.4671 24.29 65.7643 24.5386C65.9521 24.6628 66.1241 24.8337 66.2493 25.0823C66.437 25.2687 66.4839 25.5638 66.5465 25.9211C66.5465 26.1697 66.4839 26.2784 66.2962 26.4648C66.1711 26.5891 65.999 26.6512 65.8113 26.6512C65.5766 26.6512 65.4515 26.5891 65.2638 26.4648C65.1386 26.2784 65.076 26.1697 65.076 25.9211C65.076 25.9211 65.076 25.9211 65.0135 25.9211C65.0135 25.859 65.0135 25.7968 64.9509 25.7968C64.8883 25.7347 64.8258 25.6726 64.7632 25.6104C64.5755 25.424 64.3408 25.2531 64.0905 25.1289C63.4804 24.8337 62.9329 24.523 62.2759 24.3521C61.0088 23.8706 59.726 23.5133 58.3964 23.2026C57.3639 22.9696 56.3314 22.721 55.299 22.5346C54.5637 25.424 53.7816 28.3134 52.9368 31.1407C50.8719 37.8826 48.5724 44.5624 46.0225 51.1335C44.818 54.4423 43.5352 57.689 42.143 60.9512C40.9384 64.027 39.5931 67.0252 38.1383 69.9767C38.0757 71.2971 38.0131 72.6331 37.9506 73.8914C37.9506 74.7924 38.0131 75.6312 38.0131 76.4856C38.0757 76.905 38.1383 77.2623 38.2009 77.6818C38.2634 78.1012 38.326 78.4119 38.4355 78.707C38.4355 78.7692 38.4981 78.7692 38.4981 78.8313C38.5607 78.8313 38.6232 78.8313 38.6232 78.8313C38.8735 78.8313 39.1082 78.707 39.3585 78.5361C39.906 78.0546 40.4535 77.4487 40.9384 76.7342C41.2357 76.2526 41.5485 75.7089 41.9083 75.2273C42.4558 74.202 43.1129 73.2389 43.8481 72.2758C44.4582 71.4991 45.1152 70.8932 46.0382 70.3495C46.9455 69.8058 47.9779 69.6194 49.1355 69.9301C50.168 70.3495 51.0127 70.8932 51.6854 71.5612C52.2329 72.1049 52.6553 72.5865 53.0776 73.068C53.2028 73.1923 53.3123 73.3011 53.5 73.4875C53.9849 74.0933 54.5325 74.5127 55.08 74.6992C55.3303 74.7613 55.6275 74.8234 55.9873 74.7613C56.2845 74.637 56.66 74.5283 57.0197 74.2797C57.6924 73.8603 58.2869 73.3166 58.8969 72.6486C59.4445 72.0428 59.992 71.3903 60.4769 70.6602C60.6021 70.5359 60.7272 70.4738 60.8367 70.4738C60.9619 70.4117 61.0714 70.4738 61.1965 70.5359C61.3216 70.5981 61.3842 70.7223 61.3842 70.8311C61.4468 70.9554 61.3842 71.0641 61.3217 71.1884C60.8367 71.9651 60.2892 72.6952 59.7417 73.4098C59.1942 74.0778 58.5215 74.7924 57.8019 75.3982C57.3795 75.6934 56.9572 75.9419 56.4722 76.1749C55.9873 76.4235 55.3772 76.4701 54.7671 76.4701C54.157 76.3458 53.6095 76.1749 53.1246 75.8642C52.6396 75.6312 52.2798 75.2584 51.9044 74.9632C51.2943 74.2953 50.7468 73.6428 50.3244 72.9748C50.2618 72.9748 50.1993 72.9127 50.1993 72.8506C49.7143 72.136 49.1668 71.5923 48.6193 71.2816C47.9466 70.9864 47.2896 71.033 46.617 71.4059C45.9443 71.7631 45.3498 72.3069 44.8649 73.037C44.1922 74.0001 43.5978 74.9632 42.9877 76.0506C42.7531 76.5322 42.4402 77.0138 42.2055 77.4953C42.143 77.5575 42.143 77.5575 42.143 77.6196C41.7206 78.3497 41.1731 79.0643 40.4535 79.7944C40.0311 80.2139 39.4836 80.4624 38.811 80.5712C38.6232 80.5712 38.4512 80.5712 38.2634 80.5712C38.2009 80.509 38.0757 80.509 38.0288 80.509H37.9662L37.8411 80.4469C37.7785 80.4469 37.7159 80.3847 37.6533 80.3847C37.4187 80.1983 37.231 80.0896 37.1058 79.9032C36.9807 79.7789 36.9181 79.608 36.8086 79.4837C36.574 78.94 36.4488 78.4585 36.3862 77.9769C36.2611 77.4953 36.1985 77.0759 36.1985 76.5943C36.1359 75.6934 36.0734 74.7924 36.1359 73.8914C35.7136 74.7302 35.2912 75.6312 34.8688 76.4856C33.7112 78.9556 32.319 81.3634 30.739 83.647C29.9568 84.7965 29.0965 85.8684 28.1266 86.8937C27.1567 87.9811 25.9991 88.8199 24.732 89.55C24.0593 89.8452 23.3397 90.0316 22.495 90.0937C21.7128 90.0937 20.9776 89.8452 20.3049 89.3636C19.6323 88.8821 19.1473 88.3384 18.7875 87.6859C18.4277 87.0335 18.1149 86.3655 17.9428 85.6975C17.583 84.3149 17.3953 82.9324 17.2701 81.5498C17.145 80.1673 17.0824 78.7847 17.0824 77.4021C17.0198 74.6992 17.0824 71.9185 17.2701 69.2155C17.6299 63.6697 18.1774 58.2637 18.9127 52.8422C19.6479 47.3586 20.4927 41.9371 21.4625 36.5933C22.4324 31.1717 23.59 25.8124 24.8571 20.453V20.3909C24.8571 20.3287 24.8571 20.3287 24.8571 20.2666C22.3699 20.3287 19.8826 20.453 17.3327 20.6239C11.8106 20.9812 6.41369 21.82 1.01675 23.0939C1.00111 23.156 0.875964 23.156 0.813391 23.0939ZM20.1016 52.951C19.3663 58.3725 18.7719 63.794 18.3965 69.2621C18.2087 71.9651 18.1618 74.6836 18.1618 77.3866C18.1618 78.7692 18.2244 80.0896 18.3495 81.4877C18.4747 82.8081 18.6467 84.1441 18.9596 85.4024C19.3194 86.7228 19.9921 87.8102 20.8994 88.5869C21.3843 88.8821 21.9318 89.0685 22.5419 89.0685C23.152 89.0685 23.7465 88.8821 24.3565 88.5869C25.5142 88.0432 26.5466 87.2665 27.4539 86.2412C28.3612 85.2781 29.206 84.1907 29.9412 83.1033C31.5212 80.8197 32.7883 78.474 33.9459 76.004C34.7906 74.1399 35.5884 72.2758 36.308 70.2874C36.3706 69.7437 36.3706 69.1378 36.4332 68.6097C37.0433 61.5104 38.0757 54.5821 39.4054 47.6537C40.7351 40.7254 42.3776 33.8592 44.38 27.0707C44.9901 25.0823 45.6471 23.156 46.3197 21.2297C42.1899 20.7482 38.0757 20.453 33.8833 20.3287C31.396 20.2045 28.9087 20.2045 26.4215 20.2666C26.3589 20.3287 26.3589 20.3909 26.3589 20.4996C26.2963 20.6239 26.2963 20.686 26.2337 20.7948C23.6682 31.4048 21.6659 42.1235 20.1016 52.951ZM29.9099 7.97888C30.2071 7.3109 30.52 6.59632 30.8172 5.92834C31.0049 5.38463 31.2396 4.77879 31.4273 4.23509C31.2552 4.54577 31.1301 4.85646 30.9424 5.21375C30.5826 6.11475 30.2228 7.01575 29.9099 7.97888ZM38.4042 78.7847H38.4668C38.4668 78.7847 38.4668 78.7847 38.4042 78.7847ZM45.9912 27.5522C44.0515 34.2942 42.4715 41.0982 41.2669 47.9644C40.5943 51.3975 40.0624 54.8928 39.5149 58.3259C39.1551 60.9201 38.8422 63.4988 38.545 66.0931C40.9072 61.091 43.0972 55.9802 45.0996 50.8072C46.3667 47.4984 47.5868 44.2517 48.7444 40.9274C49.902 37.6185 50.9814 34.2476 51.9513 30.8766C52.7961 28.0493 53.5313 25.2221 54.1883 22.3327C52.9212 22.1463 51.6385 21.9132 50.3713 21.7268C49.5266 21.6026 48.7288 21.4783 47.9466 21.4317C47.1958 23.389 46.5857 25.4395 45.9912 27.5522ZM48.3534 20.2045C49.0886 20.2666 49.8082 20.3909 50.4809 20.453C51.8105 20.6394 53.1559 20.8103 54.4855 21.0588C54.4855 20.9967 54.5481 20.9346 54.5481 20.9346C54.5481 20.8724 54.5481 20.8103 54.5481 20.7482C54.9079 19.0083 55.2208 17.3151 55.3928 15.5752C55.4554 14.7363 55.518 13.882 55.4554 13.0431C55.4554 12.6237 55.3928 12.2664 55.3303 11.8935C55.2051 11.4741 55.08 11.1634 54.9079 10.9926C54.8453 10.9304 54.7202 10.8683 54.6576 10.8683C54.5325 10.8683 54.423 10.8683 54.2978 10.8683C54.0006 10.9304 53.6877 11.1168 53.3905 11.3498C52.7804 11.8314 52.2329 12.4373 51.748 13.1518C50.8406 14.5344 50.0585 16.0412 49.3858 17.6723C49.0104 18.5112 48.7132 19.3656 48.3534 20.2045Z" fill="white" stroke="white" stroke-width="0.81" stroke-miterlimit="10"/>
<path d="M72.0529 81.5498C70.7232 81.9692 69.331 82.2178 67.8762 82.2178C66.4839 82.2799 65.0291 81.9692 63.6368 81.4877C62.9642 81.1925 62.3071 80.8197 61.6971 80.2915C61.087 79.7478 60.6646 79.0798 60.3048 78.3653C59.7573 76.8584 59.5696 75.4137 59.8199 73.9069C60.1797 71.0175 61.2121 68.3611 62.7921 65.9533C63.5742 64.7571 64.4972 63.6697 65.514 62.6444C65.999 62.1629 66.609 61.6813 67.2661 61.2619C67.8762 60.8425 68.5957 60.5473 69.4561 60.3609C69.8785 60.2987 70.3634 60.2987 70.7858 60.423C71.2707 60.4852 71.6931 60.7182 72.1155 61.091C72.4753 61.5104 72.663 61.9299 72.7881 62.4114C72.8507 62.893 72.8507 63.3124 72.7256 63.6697C72.6004 64.4464 72.3032 65.1765 71.9434 65.7824C71.521 66.4504 71.0987 67.0407 70.6137 67.5222C69.6438 68.6096 68.4237 69.4485 67.094 69.9922C65.7017 70.5359 64.2469 70.7689 62.7921 70.6602C62.7921 70.6602 62.7921 70.6602 62.7295 70.6602C62.3071 71.8097 61.9943 72.9437 61.8222 74.1554C61.6971 75.4137 61.7596 76.5633 62.1194 77.6507C62.4792 78.8002 63.1519 79.6391 64.2469 80.3071C64.7944 80.6643 65.3419 80.9129 65.999 81.0838C66.609 81.2702 67.2191 81.3168 67.8762 81.3168C69.2058 81.3168 70.4886 81.1304 71.7557 80.7109C73.0228 80.2915 74.243 79.7478 75.4006 79.0798C76.5582 78.4119 77.6376 77.6351 78.67 76.7963C79.7025 75.9574 80.6098 74.9943 81.392 73.9069C82.2367 72.8816 82.9094 71.7321 83.3943 70.5359C83.3943 70.4116 83.4569 70.3495 83.582 70.3495C83.6446 70.2874 83.7697 70.2874 83.8167 70.2874C83.8792 70.3495 83.9418 70.4116 84.0044 70.4738C84.067 70.598 84.067 70.6602 84.0044 70.7689C82.9719 73.3632 81.3294 75.5846 79.2175 77.3866C77.09 79.3284 74.7279 80.6488 72.0529 81.5498ZM63.2614 69.3864C65.8112 69.5106 67.9231 68.6096 69.6908 66.73C70.5981 65.7047 71.1456 64.6794 71.2707 63.4833C71.3333 62.8775 71.2082 62.5202 70.9735 62.2716C70.8484 62.1473 70.6763 62.0852 70.426 62.0852C70.2383 62.0231 70.0036 62.0231 69.7533 62.0852C69.2684 62.2095 68.7209 62.3804 68.2359 62.7532C67.751 63.1105 67.2661 63.5299 66.8437 63.9493C65.9364 64.8503 65.1542 65.8756 64.4816 67.0251C64.0592 67.7708 63.6368 68.6097 63.2614 69.3864Z" fill="white" stroke="white" stroke-width="0.81" stroke-miterlimit="10"/>
<path d="M129.354 70.4738C129.354 70.5981 129.292 70.7689 129.167 70.8932C126.804 73.1768 124.317 75.4137 121.83 77.5109C120.563 78.5983 119.217 79.6235 117.888 80.5867C116.496 81.5498 115.103 82.3887 113.586 83.1809C112.851 83.5382 112.006 83.8489 111.161 84.0819C110.739 84.2062 110.316 84.2683 109.831 84.3305C109.409 84.3305 108.987 84.3305 108.502 84.2683C108.377 84.2062 108.205 84.2062 108.079 84.1441C107.954 84.1441 107.892 84.1441 107.845 84.0819C107.61 84.0198 107.36 83.9576 107.11 83.8489C106.687 83.6003 106.265 83.3052 105.952 82.8236C105.404 81.8605 105.232 80.8974 105.342 79.9964C105.576 78.1944 106.014 76.5633 106.672 75.1186C106.672 75.0564 106.672 75.0564 106.672 75.0564C106.797 74.8079 106.859 74.637 106.969 74.3884C107.156 73.8447 107.391 73.301 107.579 72.8195C107.704 72.4 107.767 72.1049 107.813 71.7942V71.7321L107.876 71.6699C107.876 71.6699 107.876 71.6699 107.876 71.6078C107.688 71.5457 107.579 71.4214 107.454 71.2505C107.391 71.1262 107.329 70.9553 107.391 70.7689C107.454 70.5359 107.579 70.3495 107.751 70.2252C107.923 70.101 108.111 70.0388 108.361 70.101C108.486 70.1631 108.549 70.1631 108.658 70.2252C108.783 70.2252 108.909 70.2874 108.955 70.3495C109.081 70.4738 109.206 70.5359 109.253 70.6447C109.315 70.7068 109.378 70.8311 109.44 70.9398C109.503 71.1262 109.566 71.235 109.566 71.3592C109.566 71.4214 109.566 71.4214 109.566 71.4835C109.566 71.4835 109.566 71.4835 109.566 71.5457C109.628 71.6699 109.628 71.7942 109.628 71.9651C109.566 72.3845 109.503 72.8039 109.393 73.1612C109.393 73.2234 109.393 73.2855 109.331 73.3476C109.096 74.1244 108.846 74.9166 108.549 75.6312L108.486 75.6933C108.424 75.9419 108.361 76.1128 108.298 76.2992C107.688 77.6196 107.266 78.8934 107.031 80.1517C106.844 80.8663 106.906 81.5343 107.156 82.078C107.282 82.311 107.454 82.4974 107.767 82.6838C107.892 82.746 108.064 82.8081 108.189 82.8702C108.251 82.9324 108.314 82.9324 108.377 82.9324C108.502 82.9945 108.627 82.9945 108.736 83.0566C109.096 83.1188 109.456 83.1809 109.831 83.1809C110.191 83.1809 110.567 83.1188 110.926 83.0566C111.709 82.8702 112.444 82.6372 113.163 82.2799C116.073 80.8974 118.795 79.0954 121.282 76.9206C123.77 74.8079 126.132 72.5243 128.384 70.1786V70.1165C128.51 70.0543 128.619 69.9922 128.744 69.9301C128.932 69.9301 129.041 69.9922 129.167 70.1165C129.292 70.2408 129.354 70.3495 129.354 70.4738ZM108.862 68.2524C108.502 68.2524 108.251 68.1902 108.079 68.0038C107.954 67.7708 108.017 67.5222 108.33 67.3358C108.58 67.0873 108.94 66.9164 109.3 66.7921C109.362 66.7921 109.362 66.73 109.425 66.73C109.785 66.5436 110.144 66.4348 110.457 66.3727C110.817 66.3106 111.067 66.3727 111.192 66.5591C111.318 66.8077 111.255 67.0407 111.005 67.2892C110.77 67.5844 110.457 67.7708 110.035 67.9572C109.644 68.1281 109.221 68.1902 108.862 68.2524Z" fill="white" stroke="white" stroke-width="0.81" stroke-miterlimit="10"/>
<path d="M155.604 71.0175C155.604 71.0175 155.604 71.0175 155.604 71.0796C154.024 73.1302 152.444 75.1807 150.692 77.0448C149.784 78.008 148.877 78.909 147.719 79.7012C147.172 80.0585 146.562 80.3692 145.905 80.5401C145.17 80.7265 144.325 80.7886 143.543 80.3071C143.12 80.0585 142.87 79.6391 142.698 79.2197C142.573 78.8624 142.51 78.4429 142.448 78.0701C142.385 77.2934 142.448 76.6254 142.573 75.9574C142.823 74.5749 143.183 73.3632 143.543 72.1049C143.903 70.8932 144.387 69.6971 144.7 68.5475C144.825 68.0038 144.888 67.398 144.888 66.9785C144.825 66.7921 144.763 66.6834 144.763 66.6834C144.763 66.6213 144.513 66.497 144.341 66.4348C143.605 66.2018 142.463 66.5591 141.431 67.2116C140.398 67.8174 139.491 68.5941 138.521 69.4951C137.614 70.334 136.769 71.235 135.909 72.1981C135.064 73.1612 134.266 74.1244 133.484 75.1496C132.702 76.1749 131.904 77.2002 131.059 78.2254C130.872 78.4585 130.637 78.707 130.387 78.94C130.136 79.1886 129.902 79.4216 129.542 79.7168C129.417 79.7789 129.354 79.841 129.182 79.9032C129.057 79.9653 128.885 80.0274 128.51 79.9653C128.384 79.9653 128.212 79.9032 128.087 79.7789C127.962 79.7168 127.962 79.7168 127.899 79.7168C127.899 79.6546 127.837 79.6546 127.837 79.5925C127.712 79.4682 127.649 79.3595 127.587 79.2352C127.289 78.8158 127.227 78.3963 127.164 78.039C126.976 76.5322 127.164 75.2739 127.352 73.938C127.414 73.27 127.54 72.6175 127.649 72.0117C127.837 71.3437 127.837 70.6913 128.369 70.1476C128.729 69.7903 129.276 69.7903 129.698 70.1476C129.824 70.2718 129.886 70.3806 129.949 70.5049V70.567C130.136 71.2971 129.886 71.8253 129.761 72.4311C129.573 73.0991 129.464 73.6894 129.339 74.2952C129.213 74.9011 129.088 75.4914 129.041 76.0972C128.916 76.7031 128.916 77.2934 128.916 77.8371C128.916 77.8992 128.916 78.0235 128.979 78.0701C129.041 78.008 129.167 77.8837 129.276 77.8371C129.464 77.6507 129.698 77.4177 129.949 77.1691C130.793 76.2681 131.638 75.305 132.436 74.3419L134.923 71.3282C135.768 70.365 136.613 69.4019 137.536 68.4388C138.443 67.5378 139.413 66.6368 140.57 65.7824C141.118 65.4251 141.728 65.0523 142.448 64.7571C143.12 64.5241 143.965 64.3998 144.872 64.5707C145.06 64.6328 145.295 64.695 145.482 64.8193C145.67 64.8814 145.967 65.0523 146.155 65.3008C146.578 65.7203 146.765 66.264 146.828 66.6834C146.953 67.5222 146.828 68.2524 146.703 68.9048C146.452 70.2874 146.093 71.4991 145.67 72.7573C145.31 73.969 144.888 75.103 144.513 76.3147C144.325 76.8584 144.215 77.4643 144.215 77.9458C144.153 78.4895 144.215 78.9711 144.403 79.2041C144.591 79.5614 145.138 79.7478 145.67 79.6857C146.28 79.5614 146.828 79.2663 147.313 78.9711C148.408 78.3031 149.315 77.4643 150.222 76.5633C151.928 74.6991 153.492 72.6486 154.837 70.4893C154.962 70.2408 155.26 70.1942 155.447 70.3029C155.666 70.5359 155.729 70.7689 155.604 71.0175Z" fill="white" stroke="white" stroke-width="0.81" stroke-miterlimit="10"/>
<path d="M166.398 82.1556C165.428 82.8858 164.333 83.4761 163.128 83.8955C161.924 84.3149 160.641 84.3771 159.311 84.1441C158.044 83.8955 156.824 83.3673 155.791 82.5129C154.759 81.6119 154.039 80.5245 153.664 79.2041C153.304 77.9458 153.179 76.672 153.367 75.4759C153.492 74.2176 153.727 73.068 154.149 71.9185C154.931 69.5728 156.089 67.4601 157.606 65.596C158.341 64.5707 159.186 63.7318 160.219 62.9396C160.703 62.5823 161.314 62.2095 161.971 62.0386C162.33 61.9143 162.69 61.8522 163.128 61.9143C163.551 61.9765 163.91 62.1007 164.286 62.3337C164.286 62.3337 164.286 62.3337 164.348 62.3959C164.411 62.3959 164.473 62.458 164.536 62.5202L164.724 62.7687C164.849 62.893 164.958 63.0017 165.021 63.126C165.021 63.1881 165.021 63.1881 165.084 63.2503C165.146 63.3746 165.146 63.4988 165.209 63.5454C165.209 63.6076 165.271 63.6697 165.271 63.794C165.334 63.8561 165.334 63.9804 165.334 64.0891C165.396 64.1513 165.396 64.2134 165.396 64.2755C165.522 64.9901 165.459 65.596 165.271 66.2639C165.084 66.8698 164.912 67.4756 164.599 68.0038C164.301 68.5475 163.926 69.0912 163.504 69.5728C163.378 69.6971 163.206 69.7592 163.081 69.7592C162.894 69.8213 162.721 69.7592 162.596 69.6349C162.471 69.5106 162.346 69.3398 162.346 69.2155C162.346 69.0291 162.409 68.8582 162.534 68.7339V68.6718C163.316 67.8951 163.863 66.9941 164.114 65.9688C164.239 65.4872 164.301 65.0057 164.176 64.5241C164.051 64.0425 163.816 63.7474 163.504 63.6231C163.316 63.561 163.144 63.4988 163.019 63.4988C162.831 63.4367 162.659 63.4988 162.409 63.561C161.986 63.6852 161.564 63.9183 161.141 64.2289C160.297 64.8969 159.561 65.6736 158.904 66.5746C157.575 68.3766 156.542 70.3029 155.807 72.4777C155.025 74.5904 154.9 76.6875 155.385 78.7381C155.682 79.7012 156.167 80.5401 156.965 81.208C157.763 81.876 158.654 82.2955 159.687 82.5285C160.657 82.7149 161.689 82.7149 162.721 82.4663L163.504 82.2799C163.691 82.2178 163.863 82.1557 163.989 82.0935C164.114 82.0314 164.176 81.9692 164.286 81.9692C164.646 81.845 164.958 81.6741 165.256 81.4877C165.443 81.3634 165.615 81.3013 165.741 81.2547C167.618 79.9964 169.26 78.4274 170.59 76.5011C171.92 74.637 173.015 72.6486 173.985 70.5359C174.047 70.4116 174.172 70.3495 174.235 70.3495C174.36 70.2874 174.47 70.2874 174.595 70.3495C174.72 70.4116 174.782 70.4738 174.829 70.5825C174.829 70.7068 174.829 70.7689 174.767 70.8777C174.767 70.9398 174.767 70.9398 174.767 70.9398C173.734 72.9903 172.53 75.0409 171.247 76.9672C169.917 78.9711 168.275 80.6488 166.398 82.1556Z" fill="white" stroke="white" stroke-width="0.81" stroke-miterlimit="10"/>
<path d="M192.225 70.2874C192.35 70.2874 192.413 70.3495 192.522 70.4738C192.647 70.6602 192.647 70.769 192.585 70.9554C192.522 71.0796 192.459 71.2039 192.397 71.2505L192.272 71.4991C192.209 71.5612 192.084 71.6855 192.021 71.7321C192.021 71.7321 191.959 71.7942 191.959 71.8564C191.709 72.0428 191.536 72.2137 191.286 72.4001C183.527 79.3905 177.88 82.7615 174.423 82.6372C174.298 82.6372 174.188 82.6372 174.063 82.5751C174.063 82.5751 174 82.5751 173.938 82.5751C173.75 82.5751 173.578 82.513 173.39 82.4508C173.39 82.4508 173.328 82.4508 173.328 82.3887C173.265 82.3887 173.203 82.3887 173.14 82.3265L172.843 82.2023C172.843 82.2023 172.843 82.1401 172.78 82.1401C172.718 82.1401 172.655 82.078 172.592 82.0159L172.405 81.8294C172.217 81.643 172.108 81.5343 172.045 81.3479C171.92 81.1615 171.857 81.0527 171.795 80.8663C171.67 80.509 171.607 80.1517 171.607 79.7789C171.67 79.0488 171.857 78.4585 172.092 77.9148C172.28 77.4953 172.452 77.0759 172.702 76.6565C172.765 76.5944 172.765 76.4701 172.827 76.3613C173.375 75.3982 173.672 74.4972 173.797 73.5962C173.86 73.1768 173.797 72.6952 173.672 72.2758C173.672 72.2758 173.672 72.2137 173.609 72.1515C173.609 72.0894 173.609 72.0272 173.547 71.9651L173.422 71.6699C173.234 71.3748 173.187 71.0641 173.062 70.769C172.765 69.5728 172.702 68.3611 172.874 67.1494C173.062 65.9378 173.484 64.8659 174.094 63.7785C174.391 63.2969 174.814 62.8153 175.314 62.3338C175.565 62.1474 175.799 61.9765 176.159 61.7901C176.519 61.6037 176.894 61.5415 177.379 61.6658C177.504 61.6658 177.567 61.7279 177.677 61.7279C177.802 61.7901 177.864 61.8522 177.974 61.9143C178.099 62.0386 178.271 62.1629 178.396 62.2716C178.396 62.3338 178.459 62.3338 178.459 62.3959C178.584 62.5202 178.646 62.6445 178.709 62.8153C178.709 62.8153 178.709 62.8775 178.772 62.9396C178.772 63.0639 178.834 63.1726 178.834 63.359C178.834 64.0892 178.709 64.6795 178.412 65.2232C177.864 66.2484 177.254 67.2116 176.472 67.9883C175.924 68.6563 175.252 69.3087 174.657 69.9146V69.9767C174.657 70.101 174.72 70.1631 174.72 70.2719C174.783 70.5204 174.908 70.6913 174.97 70.9398L175.158 71.3593C175.221 71.4214 175.283 71.5457 175.283 71.6544C175.283 71.7166 175.346 71.7787 175.346 71.7787C175.533 72.4467 175.596 73.0991 175.533 73.7671C175.283 75.0254 174.923 76.1749 174.313 77.1381C174.251 77.2002 174.188 77.3245 174.126 77.4332C173.641 78.3342 173.281 79.1265 173.218 79.841C173.156 80.0275 173.218 80.1983 173.281 80.3847C173.281 80.4469 173.281 80.509 173.343 80.5712C173.343 80.5712 173.343 80.5712 173.343 80.6333H173.406C173.406 80.6954 173.468 80.7576 173.531 80.8197C173.719 81.0061 174.016 81.1149 174.501 81.177C178.318 81.7828 183.903 78.4119 191.114 71.0641C191.177 71.0641 191.177 71.002 191.239 71.002C191.302 70.9398 191.302 70.8777 191.364 70.8156L191.427 70.6913C191.427 70.6291 191.427 70.6291 191.427 70.6291C191.427 70.6291 191.427 70.6291 191.49 70.6291L191.849 70.334C191.928 70.2874 192.053 70.2874 192.225 70.2874ZM174.532 68.7961C175.017 68.3767 175.44 67.8951 175.862 67.4135C176.535 66.6368 177.129 65.7358 177.567 64.8193C177.755 64.3377 177.864 63.8561 177.802 63.4989C177.739 63.3124 177.677 63.2037 177.567 63.0794C177.567 63.0173 177.504 63.0173 177.442 62.9551H177.379L177.317 62.893C177.254 62.893 177.254 62.893 177.192 62.893C177.066 62.893 176.957 62.9551 176.832 63.0173C176.644 63.1416 176.472 63.2503 176.347 63.3746C176.05 63.7319 175.737 64.1513 175.565 64.5863C174.829 65.9067 174.532 67.2892 174.532 68.7961Z" fill="white" stroke="white" stroke-width="0.81" stroke-miterlimit="10"/>
<path d="M203.019 81.5498C201.689 81.9692 200.297 82.2178 198.842 82.2178C197.45 82.2799 195.995 81.9692 194.603 81.4877C193.93 81.1925 193.273 80.8197 192.663 80.2915C192.053 79.7478 191.63 79.0798 191.271 78.3653C190.723 76.8584 190.551 75.4137 190.786 73.9069C191.145 71.0175 192.178 68.3611 193.758 65.9533C194.54 64.7571 195.447 63.6697 196.48 62.6444C196.965 62.1629 197.575 61.6813 198.232 61.2619C198.842 60.8425 199.562 60.5473 200.406 60.3609C200.829 60.2987 201.314 60.2987 201.736 60.423C202.221 60.4852 202.643 60.7182 203.066 61.091C203.425 61.5104 203.613 61.9299 203.738 62.4114C203.801 62.893 203.801 63.3124 203.676 63.6697C203.551 64.4464 203.253 65.1765 202.894 65.7824C202.471 66.4504 202.049 67.0407 201.564 67.5222C200.594 68.6096 199.389 69.4485 198.044 69.9922C196.652 70.5359 195.197 70.7689 193.742 70.6602C193.742 70.6602 193.742 70.6602 193.68 70.6602C193.257 71.8097 192.96 72.9437 192.772 74.1554C192.647 75.4137 192.71 76.5633 193.07 77.6507C193.429 78.8002 194.102 79.6391 195.197 80.3071C195.745 80.6643 196.292 80.9129 196.949 81.0838C197.559 81.2702 198.169 81.3168 198.826 81.3168C200.156 81.3168 201.439 81.1304 202.706 80.7109C203.973 80.2915 205.193 79.7478 206.351 79.0798C207.508 78.4119 208.588 77.6351 209.62 76.7963C210.653 75.9574 211.56 74.9943 212.342 73.9069C213.187 72.8816 213.859 71.7321 214.344 70.5359C214.344 70.4116 214.407 70.3495 214.532 70.3495C214.595 70.2874 214.72 70.2874 214.782 70.2874C214.845 70.3495 214.908 70.4116 214.97 70.4738C215.033 70.598 215.033 70.6602 214.97 70.7689C213.938 73.3632 212.295 75.5846 210.183 77.3866C208.056 79.3284 205.694 80.6488 203.019 81.5498ZM194.227 69.3864C196.777 69.5106 198.889 68.6096 200.657 66.73C201.564 65.7047 202.111 64.6794 202.237 63.4833C202.299 62.8775 202.174 62.5202 201.939 62.2716C201.814 62.1473 201.642 62.0852 201.392 62.0852C201.204 62.0231 200.969 62.0231 200.719 62.0852C200.234 62.2095 199.687 62.3804 199.202 62.7532C198.717 63.1105 198.232 63.5299 197.809 63.9493C196.902 64.8503 196.104 65.8756 195.447 67.0251C195.025 67.7708 194.603 68.6097 194.227 69.3864Z" fill="white" stroke="white" stroke-width="0.81" stroke-miterlimit="10"/>
<path d="M212.123 80.1673C211.638 78.909 211.513 77.6352 211.701 76.3769C212.123 73.8448 213.218 71.6855 215.033 69.8214C215.877 68.9825 216.847 68.1902 217.942 67.5999C219.1 66.9941 220.242 66.6368 221.525 66.4504C222.792 66.3261 224.012 66.4504 225.216 66.7455C225.826 66.932 226.374 67.1028 226.968 67.3514C227.516 67.5999 228.063 67.8951 228.548 68.1902C228.674 68.3145 228.736 68.3767 228.799 68.4854C228.799 68.6718 228.799 68.7805 228.736 68.9048C228.611 68.967 228.548 69.0291 228.439 69.0912C228.314 69.0912 228.189 69.0912 228.079 69.0291C227.109 68.5475 226.014 68.2524 224.919 68.0038C223.887 67.8174 222.792 67.8174 221.775 68.0038C220.68 68.1902 219.71 68.4854 218.803 69.0291C217.895 69.5728 217.051 70.2874 216.315 71.0796C214.798 72.6486 213.828 74.5127 213.406 76.6254C213.218 77.6507 213.343 78.676 213.64 79.6391C214 80.5401 214.61 81.2702 215.455 81.7518C216.362 82.2333 217.332 82.4198 218.427 82.2955C219.522 82.2333 220.555 81.9382 221.571 81.4566C223.574 80.4314 225.388 79.1109 226.968 77.4177C228.548 75.7866 230.003 74.0467 231.27 72.1204C231.395 67.6621 231.63 63.1571 232.006 58.6987C232.428 54.1161 232.975 49.549 233.695 44.9663C234.415 40.3837 235.275 35.8787 236.37 31.3582C237.403 26.8377 238.67 22.3948 240.312 18.0452C241.094 15.8704 242.002 13.7111 243.034 11.5984C243.519 10.5731 244.129 9.54786 244.724 8.52259C245.334 7.49732 245.991 6.53419 246.851 5.69533C247.273 5.21376 247.758 4.85647 248.306 4.48365C248.494 4.35937 248.728 4.25063 248.979 4.18849C249.041 4.12635 249.104 4.12635 249.166 4.12635C249.229 4.06422 249.291 4.06422 249.291 4.06422C249.589 4.00208 249.902 3.93994 250.199 3.93994H250.261C250.324 3.93994 250.386 3.93994 250.449 4.00208C250.574 4.00208 250.637 4.00208 250.746 4.06422C250.809 4.06422 250.871 4.06422 250.934 4.12635C250.997 4.12635 250.997 4.18849 250.997 4.18849C251.122 4.25063 251.184 4.25063 251.247 4.3749L251.481 4.56132L251.607 4.74773C251.732 4.87201 251.794 4.99628 251.794 5.10502C251.857 5.10502 251.857 5.16716 251.857 5.2293C252.107 5.83514 252.279 6.42545 252.279 7.03129C252.404 8.18083 252.404 9.37698 252.342 10.5265C252.279 11.6761 252.154 12.8101 252.045 13.9596C250.652 23.1094 248.525 32.0883 245.678 40.8652C244.286 45.2615 242.768 49.6577 241.126 53.9297C239.483 58.2638 237.668 62.4736 235.604 66.6368C234.821 68.1436 233.961 69.6505 233.054 71.0952C233.054 71.2816 233.054 71.4525 233.054 71.6389C233.054 71.9962 232.991 72.3069 232.991 72.602C232.929 77.1847 233.116 81.6896 233.601 86.2723C233.789 88.4937 234.211 90.7307 234.759 92.8899C235.369 95.1114 236.339 97.0998 237.668 98.793H237.731C237.856 99.026 237.981 99.2124 237.919 99.461C237.919 99.7561 237.794 99.9426 237.622 100.129C237.371 100.315 237.199 100.378 236.949 100.378C236.652 100.315 236.464 100.253 236.276 100.02C236.214 100.02 236.214 99.9581 236.214 99.9581C234.884 97.7833 233.977 95.624 233.429 93.3404C232.819 91.0569 232.334 88.7578 231.974 86.4742C231.677 84.1907 231.427 81.845 231.364 79.5459C231.302 77.6196 231.302 75.6934 231.302 73.7671C230.207 75.2739 229.002 76.7186 227.657 78.1012C226.077 79.841 224.2 81.2857 222.072 82.3732C220.977 82.979 219.835 83.3363 218.615 83.5848C217.348 83.8179 216.065 83.647 214.798 83.1033C213.578 82.4508 212.67 81.4877 212.123 80.1673ZM233.101 69.2777C233.711 68.3145 234.258 67.2892 234.79 66.2018C236.855 62.1008 238.67 57.9531 240.25 53.619C241.892 49.347 243.347 45.0129 244.739 40.6167C246.069 36.2204 247.352 31.7621 248.431 27.3037C249.589 22.8453 250.496 18.3869 251.153 13.882C251.278 12.7324 251.403 11.5984 251.513 10.4489C251.575 9.29931 251.575 8.22744 251.45 7.07789C251.388 6.53419 251.262 5.99048 251.09 5.57105C251.028 5.50892 251.028 5.44678 251.028 5.44678C250.965 5.3225 250.903 5.26037 250.903 5.21376L250.778 5.08949L250.652 5.02735C250.652 4.96521 250.59 4.96521 250.59 4.90307H250.527C250.465 4.90307 250.465 4.84094 250.402 4.84094C250.402 4.84094 250.34 4.84094 250.277 4.84094H250.089C249.901 4.84094 249.729 4.84094 249.542 4.90307C249.479 4.90307 249.479 4.90307 249.417 4.96521C249.354 4.96521 249.291 5.02735 249.166 5.02735C249.041 5.08949 248.869 5.21376 248.744 5.26037C248.259 5.55552 247.899 5.92835 247.524 6.34777C246.804 7.12449 246.131 8.08763 245.647 9.05076C245.099 10.076 244.551 11.1013 244.129 12.1266C243.284 14.2393 242.487 16.3364 241.83 18.5734C239.28 27.3037 237.215 36.2204 235.697 45.3081C234.43 53.2617 233.523 61.2619 233.101 69.2777Z" fill="white" stroke="white" stroke-width="0.81" stroke-miterlimit="10"/>
<path d="M263.23 70.4738C263.23 70.5981 263.167 70.7689 263.042 70.8932C260.68 73.1768 258.193 75.4137 255.705 77.5109C254.438 78.5983 253.093 79.6235 251.763 80.5867C250.371 81.5498 248.979 82.3887 247.461 83.1809C246.742 83.5382 245.881 83.8489 245.037 84.0819C244.614 84.2062 244.192 84.2683 243.707 84.3305C243.284 84.3305 242.862 84.3305 242.377 84.2683C242.252 84.2062 242.08 84.2062 241.955 84.1441C241.83 84.1441 241.767 84.1441 241.705 84.0819C241.454 84.0198 241.22 83.9576 240.985 83.8489C240.563 83.6003 240.14 83.3052 239.827 82.8236C239.28 81.8605 239.092 80.8974 239.217 79.9964C239.468 78.1944 239.89 76.5633 240.547 75.1186C240.547 75.0564 240.547 75.0564 240.547 75.0564C240.672 74.8079 240.735 74.637 240.844 74.3884C241.032 73.8447 241.267 73.301 241.454 72.8195C241.579 72.4 241.642 72.1049 241.705 71.7942V71.7321L241.767 71.6699C241.767 71.6699 241.767 71.6699 241.767 71.6078C241.579 71.5457 241.47 71.4214 241.345 71.2505C241.282 71.1262 241.22 70.9553 241.282 70.7689C241.345 70.5359 241.47 70.3495 241.642 70.2252C241.814 70.101 242.002 70.0388 242.252 70.101C242.377 70.1631 242.44 70.1631 242.549 70.2252C242.674 70.2252 242.784 70.2874 242.846 70.3495C242.972 70.4738 243.097 70.5359 243.144 70.6447C243.206 70.7068 243.269 70.8311 243.331 70.9398C243.394 71.1262 243.457 71.235 243.457 71.3592C243.457 71.4214 243.457 71.4214 243.457 71.4835C243.457 71.4835 243.457 71.4835 243.457 71.5457C243.519 71.6699 243.519 71.7942 243.519 71.9651C243.457 72.3845 243.394 72.8039 243.269 73.1612C243.269 73.2234 243.269 73.2855 243.206 73.3476C242.956 74.1244 242.721 74.9166 242.424 75.6312L242.362 75.6933C242.299 75.9419 242.236 76.1128 242.174 76.2992C241.564 77.6196 241.141 78.8934 240.907 80.1517C240.719 80.8663 240.782 81.5343 241.032 82.078C241.157 82.311 241.329 82.4974 241.642 82.6838C241.767 82.746 241.939 82.8081 242.064 82.8702C242.127 82.9324 242.189 82.9324 242.252 82.9324C242.377 82.9945 242.502 82.9945 242.612 83.0566C242.972 83.1188 243.347 83.1809 243.707 83.1809C244.067 83.1809 244.426 83.1188 244.802 83.0566C245.584 82.8702 246.319 82.6372 247.039 82.2799C249.949 80.8974 252.67 79.0954 255.158 76.9206C257.645 74.8079 260.007 72.5243 262.244 70.1786V70.1165C262.369 70.0543 262.494 69.9922 262.604 69.9301C262.792 69.9301 262.901 69.9922 263.026 70.1165C263.151 70.2408 263.23 70.3495 263.23 70.4738ZM242.737 68.2524C242.377 68.2524 242.127 68.1902 241.955 68.0038C241.83 67.7708 241.892 67.5222 242.205 67.3358C242.44 67.0873 242.815 66.9164 243.175 66.7921C243.238 66.7921 243.238 66.73 243.3 66.73C243.66 66.5436 244.02 66.4348 244.333 66.3727C244.692 66.3106 244.943 66.3727 245.052 66.5591C245.177 66.8077 245.115 67.0407 244.864 67.2892C244.614 67.5844 244.317 67.7708 243.895 67.9572C243.535 68.1281 243.097 68.1902 242.737 68.2524Z" fill="white" stroke="white" stroke-width="0.81" stroke-miterlimit="10"/>
<path d="M309.002 15.684C309.002 16.4607 308.939 17.2529 308.814 17.9675C308.814 18.0297 308.814 18.1539 308.814 18.2161C308.329 21.4628 307.594 24.6628 306.624 27.7231C305.654 30.7834 304.559 33.8592 303.417 36.8729C302.197 39.8866 300.93 42.9002 299.6 45.7896C298.208 48.7412 296.816 51.6306 295.298 54.52C292.451 60.0036 289.229 65.3008 285.537 70.2874C285.24 72.8816 284.989 75.3982 284.864 77.9925C284.63 81.177 284.677 84.3771 284.927 87.4995C285.115 89.1306 285.349 90.6841 285.709 92.1909C286.006 93.7599 286.616 95.2046 287.461 96.4007C287.649 96.6493 287.711 96.8823 287.649 97.1308C287.649 97.3639 287.524 97.5503 287.289 97.7367C287.101 97.9231 286.867 97.9852 286.616 97.9231C286.382 97.9231 286.131 97.7988 286.006 97.5658C285.944 97.5037 285.881 97.4415 285.881 97.3794V97.3328C285.208 95.7638 284.661 94.1482 284.301 92.5793C283.941 90.9482 283.628 89.3326 283.519 87.7015C283.222 84.4548 283.159 81.1925 283.331 77.9458C283.456 76.0817 283.582 74.2176 283.754 72.3535C282.424 73.9224 280.969 75.3671 279.452 76.6876C277.387 78.4274 275.212 79.9342 272.897 81.2702C272.709 81.3945 272.6 81.4566 272.412 81.5654C272.35 81.5654 272.287 81.6275 272.178 81.6896C271.442 82.777 270.598 83.7402 269.628 84.6412C268.658 85.5422 267.563 86.381 266.358 87.049C266.061 87.2354 265.686 87.3442 265.263 87.4684C265.201 87.4684 265.076 87.4684 264.966 87.4684C264.857 87.4684 264.778 87.4684 264.716 87.4063C264.591 87.4063 264.528 87.3442 264.419 87.282C264.356 87.2199 264.293 87.0956 264.231 87.049C264.231 86.9247 264.168 86.8626 264.231 86.7539C264.168 86.6296 264.231 86.5053 264.231 86.3966C264.528 85.6198 264.95 85.0761 265.56 84.6567C266.53 83.9266 267.5 83.3363 268.533 82.8547C268.72 82.7304 268.893 82.6683 269.018 82.5596C269.565 82.3266 270.113 82.0159 270.598 81.7829C270.848 81.4877 271.02 81.177 271.208 80.8819C271.927 79.7944 272.475 78.6604 272.897 77.5109C273.085 76.905 273.257 76.3147 273.382 75.7089C273.507 75.0409 273.507 74.4972 273.445 73.969C273.382 73.3632 273.147 72.9438 272.835 72.5865C272.475 72.2913 272.052 72.1049 271.505 72.1049C270.41 72.2913 269.377 72.7729 268.408 73.6739C267.5 74.5749 266.718 75.538 266.045 76.6254C265.326 77.7128 264.716 78.8468 264.168 80.0585C263.621 81.2081 263.198 82.4042 262.776 83.678C262.713 83.8645 262.588 83.9732 262.416 84.0975C262.228 84.1596 262.056 84.2217 261.869 84.1596C261.571 84.0353 261.384 83.8023 261.384 83.4916V83.4295C261.259 80.1828 261.446 76.9206 261.994 73.7982C262.416 70.6136 262.901 67.4757 263.511 64.2911C264.731 58.0307 266.186 51.8325 267.813 45.6343C269.393 39.4361 271.27 33.3466 273.335 27.2726C274.368 24.2589 275.463 21.2453 276.667 18.3093C277.872 15.2956 279.217 12.4062 280.844 9.5168C281.266 8.84882 281.689 8.13424 282.236 7.46626C282.236 7.46626 282.236 7.46626 282.236 7.40412C282.721 6.73614 283.394 6.14583 284.239 5.60213C284.473 5.41572 284.786 5.35358 285.083 5.30697C285.443 5.24484 285.756 5.24484 286.116 5.36911C286.476 5.55552 286.788 5.7264 286.96 6.03709C287.148 6.33225 287.211 6.5808 287.258 6.81381C287.258 7.10897 287.258 7.41965 287.258 7.65267C287.258 7.83908 287.258 8.00996 287.32 8.19637C287.32 8.6158 287.32 9.03523 287.32 9.45466C287.195 11.0858 286.96 12.7014 286.585 14.2703C286.21 15.8393 285.803 17.3461 285.381 18.8996C283.566 25.0357 281.564 31.063 279.248 37.0282C276.933 42.9934 274.524 48.881 271.912 54.7219C269.55 60.2056 267 65.5649 264.215 70.9243C264.027 71.9496 263.918 72.9748 263.73 74.0622C263.543 75.6312 263.37 77.2002 263.245 78.7536C263.245 78.8158 263.183 78.94 263.183 79.0488C263.183 79.1109 263.183 79.1731 263.183 79.1731C263.73 78.0857 264.34 76.9983 264.997 75.9885C265.67 74.839 266.515 73.7671 267.547 72.804C268.032 72.3224 268.642 71.903 269.252 71.5457C269.925 71.1263 270.582 70.8777 271.427 70.8156C272.271 70.7534 273.069 71.0486 273.726 71.6544C274.336 72.2603 274.696 72.9748 274.821 73.7671C274.884 74.5438 274.884 75.2739 274.696 75.9885C274.571 76.6565 274.399 77.3089 274.149 77.9769C273.851 78.8779 273.429 79.6546 272.991 80.509C275.119 79.2507 277.121 77.8526 278.998 76.2992C280.75 74.7924 282.393 73.1146 283.847 71.235C284.332 67.0252 285.005 62.8619 285.787 58.7764C287.007 52.3918 288.572 46.1314 290.449 39.9332C292.201 33.6728 294.516 27.6454 297.301 21.7424C298.02 20.2355 298.818 18.7908 299.663 17.4083C300.508 15.9636 301.54 14.6432 302.823 13.4315C303.433 12.7635 304.215 12.2819 305.247 11.9868C305.795 11.8625 306.342 11.8625 306.89 12.0489C307.5 12.2353 307.985 12.5926 308.282 13.0742C308.58 13.5557 308.767 13.9752 308.83 14.4567C308.955 14.8451 309.002 15.2645 309.002 15.684ZM265.357 64.5707C265.232 65.4717 265.06 66.3727 264.872 67.2737C267.047 63.0018 269.112 58.6055 271.051 54.2093C273.664 48.4305 276.088 42.5274 278.388 36.6243C280.75 30.6591 282.815 24.6473 284.63 18.5578C285.052 17.051 285.412 15.482 285.725 13.9752C286.084 12.4062 286.272 10.8372 286.397 9.28378C286.397 8.92649 286.397 8.5692 286.335 8.19637C286.335 7.77694 286.147 7.46626 285.975 7.23324C285.85 7.10897 285.725 6.98469 285.678 6.98469L285.615 6.92255C285.615 6.92255 285.615 6.92255 285.553 6.92255C285.49 6.92255 285.49 6.92255 285.427 6.92255C285.302 6.92255 285.24 6.98469 285.13 7.04683C284.645 7.34198 284.16 7.76141 283.675 8.42939C283.253 9.03523 282.831 9.64107 282.455 10.3557C280.938 13.0586 279.608 15.9014 278.451 18.8374C277.23 21.789 276.214 24.7405 275.181 27.7542C273.179 33.7815 271.364 39.8555 269.722 45.9916C268.016 52.1743 266.624 58.3725 265.357 64.5707ZM269.471 83.1809H269.409C269.284 83.3052 269.158 83.3674 269.049 83.414C268.016 83.9577 266.984 84.5635 266.139 85.216C265.592 85.6354 265.295 86.0548 265.107 86.5364C265.107 86.5364 265.107 86.5364 265.169 86.5364C265.42 86.4742 265.654 86.35 265.952 86.2412C267.047 85.5732 268.016 84.7965 268.861 83.8334C269.112 83.6004 269.299 83.414 269.471 83.1809ZM307.672 15.8082C307.547 15.0315 307.312 14.3635 307 13.9441C306.812 13.7577 306.64 13.5868 306.452 13.5868C306.202 13.4625 305.967 13.4625 305.732 13.5247C305.122 13.7111 304.575 14.0684 304.043 14.6121C302.948 15.6374 302.041 16.8335 301.196 18.2316C300.414 19.552 299.616 20.9346 298.959 22.3793C297.567 25.2687 296.284 28.2202 295.205 31.2339C294.047 34.1854 293.014 37.2612 292.107 40.3215C290.23 46.4576 288.65 52.6558 287.383 58.9783C286.773 62.1163 286.225 65.3008 285.803 68.5475C287.195 66.5591 288.478 64.5086 289.745 62.4736C291.388 59.7085 292.952 56.8812 294.407 54.0384C297.379 48.3217 300.038 42.4808 302.416 36.5156C303.636 33.5019 304.716 30.4882 305.685 27.428C306.17 25.9211 306.593 24.3522 306.953 22.7987C307.312 21.2297 307.625 19.6608 307.735 18.1073C307.797 17.3151 307.797 16.5228 307.672 15.8082Z" fill="white" stroke="white" stroke-width="0.81" stroke-miterlimit="10"/>
<path d="M304.215 81.5498C302.885 81.9692 301.493 82.2178 300.038 82.2178C298.646 82.2799 297.191 81.9692 295.799 81.4877C295.126 81.1925 294.469 80.8197 293.859 80.2915C293.249 79.7478 292.827 79.0798 292.467 78.3653C291.919 76.8584 291.747 75.4137 291.982 73.9069C292.342 71.0175 293.374 68.3611 294.954 65.9533C295.736 64.7571 296.644 63.6697 297.676 62.6444C298.161 62.1629 298.771 61.6813 299.428 61.2619C300.038 60.8425 300.758 60.5473 301.618 60.3609C302.041 60.2987 302.526 60.2987 302.948 60.423C303.433 60.4852 303.855 60.7182 304.278 61.091C304.637 61.5104 304.825 61.9299 304.95 62.4114C305.013 62.893 305.013 63.3124 304.888 63.6697C304.762 64.4464 304.465 65.1765 304.105 65.7824C303.683 66.4504 303.261 67.0407 302.776 67.5222C301.806 68.6096 300.601 69.4485 299.256 69.9922C297.864 70.5359 296.409 70.7689 294.954 70.6602C294.954 70.6602 294.954 70.6602 294.892 70.6602C294.469 71.8097 294.172 72.9437 293.984 74.1554C293.859 75.4137 293.922 76.5633 294.281 77.6507C294.641 78.8002 295.314 79.6391 296.409 80.3071C296.956 80.6643 297.504 80.9129 298.161 81.0838C298.771 81.2702 299.381 81.3168 300.038 81.3168C301.368 81.3168 302.651 81.1304 303.918 80.7109C305.185 80.2915 306.405 79.7478 307.563 79.0798C308.72 78.4119 309.8 77.6351 310.832 76.7963C311.865 75.9574 312.772 74.9943 313.554 73.9069C314.399 72.8816 315.071 71.7321 315.556 70.5359C315.556 70.4116 315.619 70.3495 315.744 70.3495C315.807 70.2874 315.932 70.2874 315.994 70.2874C316.057 70.3495 316.12 70.4116 316.182 70.4738C316.245 70.598 316.245 70.6602 316.182 70.7689C315.15 73.3632 313.507 75.5846 311.395 77.3866C309.252 79.3284 306.89 80.6488 304.215 81.5498ZM295.423 69.3864C297.973 69.5106 300.085 68.6096 301.853 66.73C302.76 65.7047 303.308 64.6794 303.433 63.4833C303.495 62.8775 303.37 62.5202 303.136 62.2716C303.01 62.1473 302.838 62.0852 302.588 62.0852C302.4 62.0231 302.166 62.0231 301.915 62.0852C301.43 62.2095 300.883 62.3804 300.398 62.7532C299.913 63.1105 299.428 63.5299 299.006 63.9493C298.098 64.8503 297.301 65.8756 296.644 67.0251C296.221 67.7708 295.799 68.6097 295.423 69.3864Z" fill="white" stroke="white" stroke-width="0.81" stroke-miterlimit="10"/>
<path d="M339.334 78.0546C339.757 70.8932 340.664 63.7785 342.056 56.7414C343.386 49.7509 345.091 42.7759 347.156 35.9719C349.158 29.0435 351.708 22.3637 354.79 15.8548C355.572 14.2237 356.479 12.6081 357.465 11.1013C358.372 9.53232 359.53 8.02548 360.859 6.70506C361.532 5.99048 362.314 5.44677 363.347 5.02734C363.894 4.77879 364.442 4.73219 365.099 4.77879L365.287 4.84093C365.412 4.84093 365.474 4.90307 365.584 4.90307C365.771 5.02734 365.944 5.08948 366.131 5.19822C366.428 5.43124 366.616 5.74193 366.741 6.03708C366.992 6.58078 367.101 7.12449 367.101 7.60605C367.101 8.08762 367.101 8.56919 367.101 9.05075C366.976 9.82747 366.913 10.5576 366.741 11.2722C366.741 11.4586 366.741 11.5673 366.679 11.7537C366.069 15.3111 365.224 18.7908 364.129 22.2239C363.096 25.5949 361.939 29.028 360.734 32.3368C358.31 39.0788 355.525 45.6498 352.49 52.1432C350.973 55.3899 349.33 58.59 347.578 61.7124C345.889 64.8503 343.933 67.8485 341.759 70.7379C341.696 70.8621 341.571 70.9864 341.462 70.9864C341.165 73.3321 340.977 75.7399 340.852 78.0856C340.664 81.643 340.664 85.1227 341.039 88.6801C341.165 90.42 341.462 92.1132 341.884 93.7909C342.244 95.5308 342.917 97.0997 343.887 98.4823C344.012 98.7309 344.074 98.9639 344.074 99.2124C344.012 99.4454 343.887 99.694 343.652 99.8183C343.464 100.005 343.229 100.067 342.979 100.005C342.729 100.005 342.494 99.8804 342.369 99.6474C342.307 99.5853 342.244 99.5231 342.244 99.461C341.524 97.659 340.914 95.9036 340.492 94.1637C340.07 92.3618 339.757 90.6064 339.585 88.8044C339.209 85.2315 339.147 81.6119 339.334 78.0546ZM341.696 68.9048C343.448 66.4348 345.091 63.8406 346.546 61.1376C348.298 57.9997 349.878 54.8772 351.458 51.6927C354.493 45.2459 357.215 38.6904 359.702 32.0106C360.969 28.7018 362.127 25.3308 363.159 21.9598C363.707 20.2821 364.129 18.5267 364.551 16.849C365.036 15.1092 365.333 13.3538 365.584 11.6139C365.709 10.7751 365.709 9.92068 365.709 9.01968C365.646 8.60026 365.646 8.18083 365.584 7.808C365.459 7.38857 365.396 7.09342 365.224 6.78273C365.161 6.65846 365.099 6.59632 365.036 6.59632C365.036 6.53418 365.036 6.53418 365.036 6.53418H364.974H364.848C364.551 6.47204 364.238 6.53418 363.941 6.65846C363.269 6.90701 362.612 7.32643 362.001 7.91674C360.844 9.11289 359.811 10.511 358.904 12.0178C357.997 13.4625 357.152 15.0315 356.354 16.6005C354.837 19.785 353.445 23.0473 352.224 26.3561C350.957 29.6649 349.8 33.0359 348.767 36.469C346.702 43.2109 344.95 50.1392 343.558 57.0521C342.791 61.0289 342.181 64.9435 341.696 68.9048Z" fill="white" stroke="white" stroke-width="0.81" stroke-miterlimit="10"/>
<path d="M370.371 70.4738C370.371 70.5981 370.308 70.7689 370.183 70.8932C367.821 73.1768 365.334 75.4137 362.846 77.5109C361.579 78.5983 360.234 79.6235 358.904 80.5867C357.512 81.5498 356.12 82.3887 354.602 83.1809C353.883 83.5382 353.022 83.8489 352.178 84.0819C351.755 84.2062 351.333 84.2683 350.848 84.3305C350.425 84.3305 350.003 84.3305 349.518 84.2683C349.393 84.2062 349.221 84.2062 349.096 84.1441C348.971 84.1441 348.908 84.1441 348.845 84.0819C348.595 84.0198 348.361 83.9576 348.126 83.8489C347.704 83.6003 347.281 83.3052 346.968 82.8236C346.421 81.8605 346.233 80.8974 346.358 79.9964C346.609 78.1944 347.031 76.5633 347.688 75.1186C347.688 75.0564 347.688 75.0564 347.688 75.0564C347.813 74.8079 347.876 74.637 347.985 74.3884C348.173 73.8447 348.407 73.301 348.595 72.8195C348.72 72.4 348.783 72.1049 348.845 71.7942V71.7321L348.908 71.6699C348.908 71.6699 348.908 71.6699 348.908 71.6078C348.72 71.5457 348.611 71.4214 348.486 71.2505C348.423 71.1262 348.361 70.9553 348.423 70.7689C348.486 70.5359 348.611 70.3495 348.783 70.2252C348.955 70.101 349.143 70.0388 349.393 70.101C349.518 70.1631 349.581 70.1631 349.69 70.2252C349.815 70.2252 349.925 70.2874 349.987 70.3495C350.113 70.4738 350.238 70.5359 350.285 70.6447C350.347 70.7068 350.41 70.8311 350.472 70.9398C350.535 71.1262 350.598 71.235 350.598 71.3592C350.598 71.4214 350.598 71.4214 350.598 71.4835C350.598 71.4835 350.598 71.4835 350.598 71.5457C350.66 71.6699 350.66 71.7942 350.66 71.9651C350.598 72.3845 350.535 72.8039 350.41 73.1612C350.41 73.2234 350.41 73.2855 350.347 73.3476C350.097 74.1244 349.862 74.9166 349.565 75.6312L349.503 75.6933C349.44 75.9419 349.377 76.1128 349.315 76.2992C348.705 77.6196 348.282 78.8934 348.048 80.1517C347.86 80.8663 347.923 81.5343 348.173 82.078C348.298 82.311 348.47 82.4974 348.783 82.6838C348.908 82.746 349.08 82.8081 349.205 82.8702C349.268 82.9324 349.33 82.9324 349.393 82.9324C349.518 82.9945 349.643 82.9945 349.753 83.0566C350.113 83.1188 350.488 83.1809 350.848 83.1809C351.208 83.1809 351.567 83.1188 351.943 83.0566C352.725 82.8702 353.46 82.6372 354.18 82.2799C357.09 80.8974 359.811 79.0954 362.299 76.9206C364.786 74.8079 367.148 72.5243 369.385 70.1786V70.1165C369.51 70.0543 369.635 69.9922 369.745 69.9301C369.933 69.9301 370.042 69.9922 370.167 70.1165C370.292 70.2408 370.371 70.3495 370.371 70.4738ZM349.878 68.2524C349.518 68.2524 349.268 68.1902 349.096 68.0038C348.971 67.7708 349.033 67.5222 349.33 67.3358C349.581 67.0873 349.941 66.9164 350.3 66.7921C350.363 66.7921 350.363 66.73 350.425 66.73C350.785 66.5436 351.145 66.4348 351.458 66.3727C351.818 66.3106 352.068 66.3727 352.178 66.5591C352.303 66.8077 352.24 67.0407 351.99 67.2892C351.739 67.5844 351.442 67.7708 351.02 67.9572C350.676 68.1281 350.238 68.1902 349.878 68.2524Z" fill="white" stroke="white" stroke-width="0.81" stroke-miterlimit="10"/>
<path d="M364.066 139.897L363.707 140.021L363.409 140.146C363.222 140.27 362.987 140.332 362.799 140.332C362.314 140.456 361.767 140.394 361.282 140.208C360.797 139.959 360.375 139.664 360.062 139.307C359.811 138.949 359.577 138.592 359.389 138.219C359.092 137.505 358.842 136.775 358.716 136.044C358.529 135.314 358.466 134.6 358.419 133.932C358.294 132.487 358.231 131.105 358.231 129.66C358.294 126.895 358.419 124.114 358.716 121.349C359.326 115.803 360.109 110.335 361.141 104.851C362.048 99.9115 363.081 94.9715 364.238 90.0471C364.113 89.752 364.004 89.5034 363.816 89.2704C363.754 89.2704 363.691 89.2704 363.628 89.3325C363.503 89.3325 363.378 89.3947 363.269 89.3947C362.596 89.6432 361.876 89.752 361.141 89.8141C360.953 89.8762 360.781 89.8762 360.531 89.8141C360.406 89.8141 360.281 89.752 360.109 89.6277C360.046 89.5656 359.983 89.5034 359.921 89.3791C359.858 89.2549 359.796 89.1927 359.858 89.084C359.858 88.8976 359.858 88.7888 359.921 88.7267C359.983 88.6024 360.046 88.5403 360.109 88.4937C360.109 88.4315 360.109 88.4315 360.171 88.3694C360.296 88.2451 360.422 88.0743 360.531 87.95C360.766 87.6548 361.141 87.4684 361.501 87.282C361.923 87.0956 362.346 87.049 362.831 87.2199C363.253 87.3441 363.55 87.5772 363.863 87.8878C363.988 88.0121 364.113 88.1209 364.223 88.3073C364.348 88.2451 364.52 88.183 364.645 88.1209C365.912 82.9479 367.258 77.6973 368.712 72.5865C370.23 67.2271 371.872 61.992 373.624 56.6948C375.376 51.4597 377.379 46.2712 379.631 41.2225C380.789 38.6904 382.056 36.1583 383.448 33.7504C384.121 32.5388 384.903 31.3426 385.811 30.2552C386.233 29.6494 386.718 29.1057 387.265 28.6241C387.813 28.0804 388.423 27.661 389.143 27.3037H389.205C389.393 27.2415 389.565 27.1794 389.815 27.1173C390.003 27.0551 390.238 27.0551 390.535 27.1173C390.832 27.1173 391.082 27.3037 391.254 27.4745C391.505 27.7076 391.614 27.894 391.677 28.1425C391.865 28.562 391.927 28.9814 391.927 29.3387C391.927 29.696 391.927 30.0688 391.864 30.4261C391.739 31.8708 391.442 33.2533 391.02 34.5738C390.175 37.2768 389.205 39.871 388.11 42.4031C385.873 47.5139 383.323 52.4539 380.476 57.2074C379.084 59.6152 377.567 61.8988 375.987 64.2445C374.532 66.4193 372.952 68.5164 371.372 70.6291C371.309 70.8155 371.247 70.9864 371.184 71.1728C370.996 71.8408 370.824 72.4311 370.699 73.0991C369.432 77.7905 368.212 82.4974 367.054 87.1888C368.931 86.4587 370.746 85.6198 372.576 84.7188C375.064 83.5227 377.488 82.1246 379.788 80.6799C384.45 77.6662 388.642 74.1244 392.334 70.0854C392.459 70.0233 392.568 69.9611 392.694 69.9611C392.819 69.9611 392.928 69.9611 393.053 70.0854C393.116 70.1475 393.179 70.2718 393.179 70.3806C393.179 70.4893 393.179 70.6291 393.116 70.6757C391.301 72.8971 389.299 74.8234 387.046 76.5788C384.856 78.2565 382.557 79.8255 380.195 81.2702C375.955 83.9266 371.466 86.2101 366.851 88.1364C366.491 89.3947 366.178 90.7306 365.944 92.0511C366.194 92.8899 366.429 93.7909 366.679 94.6453C367.289 97.3483 367.836 100.129 368.134 102.832C368.556 105.597 368.744 108.378 368.806 111.143C368.931 113.908 368.931 116.689 368.869 119.454C368.806 122.219 368.681 125 368.384 127.765C368.259 129.147 368.024 130.53 367.774 131.912C367.524 133.295 367.164 134.677 366.679 136.06C366.429 136.728 366.131 137.38 365.709 138.048C365.396 138.81 364.802 139.415 364.066 139.897ZM364.317 137.179C364.676 136.635 364.927 136.091 365.161 135.485C365.646 134.289 366.006 132.953 366.319 131.633C366.569 130.312 366.804 128.976 366.992 127.594C367.664 122.172 367.899 116.704 367.727 111.221C367.727 108.455 367.539 105.737 367.179 102.972C366.882 100.269 366.444 97.5502 365.85 94.9094C365.787 94.5521 365.662 94.2414 365.615 93.8841C364.77 97.6745 363.973 101.465 363.316 105.271C362.283 110.692 361.438 116.114 360.766 121.52C360.468 124.223 360.281 127.003 360.218 129.706C360.218 131.027 360.218 132.409 360.343 133.745C360.406 135.066 360.703 136.34 361.125 137.474C361.376 138.017 361.673 138.375 361.97 138.499C362.158 138.561 362.267 138.623 362.518 138.561C362.643 138.561 362.752 138.499 362.878 138.499C363.003 138.437 363.112 138.375 363.175 138.313C363.581 138.095 363.941 137.722 364.317 137.179ZM363.222 88.6024C363.284 88.6024 363.284 88.6024 363.347 88.5403C363.097 88.2917 362.862 88.1209 362.565 87.9966C362.314 87.8723 362.08 87.9344 361.845 87.9966C361.595 88.1209 361.36 88.2917 361.172 88.5403C361.047 88.6646 360.938 88.7888 360.813 88.8354C360.813 88.8976 360.75 88.9597 360.75 89.0219C360.875 89.0219 360.985 89.0219 361.11 89.0219C361.782 88.9597 362.439 88.8354 363.112 88.6646C363.096 88.6024 363.159 88.6024 363.222 88.6024ZM372.733 66.0154C373.405 65.1765 374.062 64.2755 374.735 63.359C376.378 61.1376 377.895 58.8385 379.397 56.5549C382.306 51.8636 384.919 47.0479 387.156 42.0458C388.313 39.5137 389.221 36.935 390.003 34.2786C390.363 33.0203 390.613 31.6844 390.723 30.3639C390.785 29.696 390.723 29.1057 390.535 28.6241C390.535 28.4998 390.472 28.3755 390.41 28.3755V28.3134C390.347 28.3134 390.347 28.3134 390.347 28.3134H390.285C390.159 28.2513 389.925 28.3134 389.612 28.4377C388.579 29.0435 387.61 29.8824 386.827 31.0319C386.045 32.1193 385.31 33.2533 384.637 34.4029C383.308 36.8107 382.087 39.2807 381.055 41.8128C378.927 46.877 377.05 52.05 375.361 57.2851C374.5 60.1745 373.593 63.126 372.733 66.0154Z" fill="white" stroke="white" stroke-width="0.81" stroke-miterlimit="10"/>
<path d="M403.659 81.5498C402.33 81.9692 400.938 82.2178 399.483 82.2178C398.09 82.2799 396.636 81.9692 395.243 81.4877C394.571 81.1925 393.914 80.8197 393.304 80.2915C392.693 79.7478 392.271 79.0798 391.911 78.3653C391.364 76.8584 391.192 75.4137 391.426 73.9069C391.786 71.0175 392.819 68.3611 394.399 65.9533C395.181 64.7571 396.088 63.6697 397.121 62.6444C397.605 62.1629 398.216 61.6813 398.873 61.2619C399.483 60.8425 400.202 60.5473 401.063 60.3609C401.485 60.2987 401.97 60.2987 402.392 60.423C402.877 60.4852 403.3 60.7182 403.722 61.091C404.082 61.5104 404.27 61.9299 404.395 62.4114C404.457 62.893 404.457 63.3124 404.332 63.6697C404.207 64.4464 403.91 65.1765 403.55 65.7824C403.128 66.4504 402.705 67.0407 402.22 67.5222C401.25 68.6096 400.046 69.4485 398.701 69.9922C397.308 70.5359 395.853 70.7689 394.399 70.6602C394.399 70.6602 394.399 70.6602 394.336 70.6602C393.914 71.8097 393.616 72.9437 393.429 74.1554C393.304 75.4137 393.366 76.5633 393.726 77.6507C394.086 78.8002 394.758 79.6391 395.853 80.3071C396.401 80.6643 396.948 80.9129 397.605 81.0838C398.216 81.2702 398.826 81.3168 399.483 81.3168C400.812 81.3168 402.095 81.1304 403.362 80.7109C404.629 80.2915 405.849 79.7478 407.007 79.0798C408.165 78.4119 409.244 77.6351 410.277 76.7963C411.309 75.9574 412.216 74.9943 412.999 73.9069C413.843 72.8816 414.516 71.7321 415.001 70.5359C415.001 70.4116 415.063 70.3495 415.189 70.3495C415.251 70.2874 415.376 70.2874 415.439 70.2874C415.501 70.3495 415.564 70.4116 415.627 70.4738C415.689 70.598 415.689 70.6602 415.627 70.7689C414.594 73.3632 412.952 75.5846 410.84 77.3866C408.697 79.3284 406.334 80.6488 403.659 81.5498ZM394.868 69.3864C397.418 69.5106 399.53 68.6096 401.297 66.73C402.205 65.7047 402.752 64.6794 402.877 63.4833C402.94 62.8775 402.815 62.5202 402.58 62.2716C402.455 62.1473 402.283 62.0852 402.033 62.0852C401.845 62.0231 401.61 62.0231 401.36 62.0852C400.875 62.2095 400.327 62.3804 399.842 62.7532C399.358 63.1105 398.873 63.5299 398.45 63.9493C397.543 64.8503 396.745 65.8756 396.088 67.0251C395.65 67.7708 395.228 68.6097 394.868 69.3864Z" fill="white" stroke="white" stroke-width="0.81" stroke-miterlimit="10"/>
<path d="M439.013 75.6467C438.763 75.0409 438.653 74.4351 438.591 73.7826C438.528 72.5243 438.716 71.2505 439.076 70.1165C439.138 69.8835 439.326 69.6971 439.498 69.5728C439.436 69.2776 439.498 68.9669 439.498 68.6097C439.623 67.8795 439.858 67.2892 440.28 66.6834C440.28 66.6212 440.343 66.6213 440.343 66.5591C440.405 66.4348 440.468 66.3727 440.531 66.264L440.89 65.9067C441.078 65.6736 441.313 65.4872 441.626 65.2387C442.236 64.8193 442.83 64.5086 443.503 64.3377C443.8 64.2756 444.176 64.2134 444.473 64.2134C444.598 64.2134 444.723 64.1513 444.833 64.1513C445.083 64.1513 445.255 64.1513 445.505 64.2134C446.897 64.3377 448.118 64.8814 449.088 65.9067C449.15 66.0309 449.213 66.0931 449.275 66.2018C449.4 66.3261 449.526 66.5591 449.635 66.7455L449.87 67.165C449.932 67.2892 449.932 67.398 449.995 67.5222C449.995 67.5222 449.995 67.5844 449.995 67.6465C450.057 67.7087 450.057 67.7708 450.057 67.8329C450.12 67.8951 450.12 68.0193 450.183 68.1281V68.6097C450.245 68.8427 450.245 69.1534 450.245 69.3864C450.245 69.4485 450.245 69.5106 450.245 69.5728C450.12 70.7689 449.823 71.9806 449.275 73.0059C449.088 73.301 448.978 73.5496 448.79 73.7826C449.51 73.7205 450.245 73.6583 450.918 73.4875C452.075 73.2544 453.108 72.8816 454.078 72.3379C455.11 71.7942 455.892 71.0796 456.565 70.1631C456.628 70.101 456.69 70.0388 456.815 69.9767C456.878 69.9767 457.003 69.9767 457.05 70.0388C457.113 70.101 457.175 70.1631 457.175 70.2718C457.238 70.334 457.175 70.4583 457.175 70.5204C456.815 71.0641 456.393 71.4835 455.908 71.9029C455.486 72.2602 455.001 72.6331 454.453 72.9282C453.421 73.5341 452.326 73.9535 451.121 74.2486C450.151 74.4351 449.181 74.6059 448.211 74.6681C447.852 75.0875 447.492 75.5069 447.116 75.8642C446.272 76.7031 445.239 77.4332 444.082 77.9148C444.019 77.9148 443.957 77.9148 443.894 77.9148C443.831 77.9769 443.706 77.9769 443.597 78.039L443.112 78.1012C442.987 78.1012 442.861 78.1012 442.752 78.1012C442.752 78.1012 442.689 78.1012 442.627 78.1012C442.439 78.1633 442.267 78.1012 442.142 78.1012C441.422 78.039 440.812 77.7439 440.202 77.3245C439.623 76.8584 439.248 76.3147 439.013 75.6467ZM440.218 73.7205C440.218 74.8079 440.468 75.7089 441.063 76.4235L441.125 76.4856C441.188 76.5477 441.25 76.6099 441.313 76.672L441.563 76.8584C441.626 76.8584 441.626 76.9206 441.626 76.9206C441.813 76.9827 442.048 77.0448 442.236 77.107L442.424 77.1691H442.611C442.674 77.1691 442.736 77.1691 442.799 77.1691C442.861 77.1691 442.924 77.1691 443.049 77.1691L443.409 77.107C443.472 77.107 443.534 77.0448 443.597 77.0448C443.659 77.0448 443.722 76.9827 443.784 76.9827C444.754 76.6254 445.662 76.0817 446.506 75.305C446.694 75.1186 446.866 74.8856 447.054 74.6991C446.021 74.6991 444.989 74.5749 443.957 74.2797C442.736 73.9846 441.72 73.3166 440.797 72.3534C440.671 72.2292 440.546 72.0583 440.437 71.934C440.28 72.5243 440.218 73.1302 440.218 73.7205ZM441.735 71.5612C442.345 72.4 443.19 72.9438 444.285 73.301C445.318 73.6583 446.413 73.8448 447.555 73.8448H447.617C447.68 73.8448 447.68 73.8448 447.68 73.8448C448.65 72.5243 449.134 71.0796 449.197 69.5106C449.197 68.4232 448.775 67.5222 448.039 66.8543C447.257 66.2484 446.397 65.8911 445.364 65.829C444.332 65.7669 443.487 66.062 442.642 66.6057L442.58 66.6679C442.392 66.7921 442.283 66.9009 442.095 67.0873L441.86 67.3514C441.798 67.4135 441.798 67.4756 441.735 67.5378C441.673 67.5378 441.673 67.5999 441.673 67.6621C441.375 68.0193 441.188 68.4388 441.125 68.8582C440.953 69.8058 441.125 70.7223 441.735 71.5612Z" fill="white" stroke="white" stroke-width="0.81" stroke-miterlimit="10"/>
<path d="M451.199 139.897L450.84 140.021L450.527 140.13C450.339 140.254 450.104 140.316 449.917 140.316C449.432 140.441 448.884 140.379 448.399 140.192C447.914 139.944 447.492 139.648 447.179 139.291C446.929 138.934 446.694 138.577 446.506 138.204C446.209 137.489 445.959 136.759 445.834 136.029C445.646 135.299 445.584 134.584 445.537 133.916C445.411 132.472 445.349 131.089 445.349 129.644C445.411 126.879 445.537 124.099 445.834 121.333C446.444 115.788 447.226 110.32 448.259 104.836C449.166 99.8959 450.198 94.956 451.356 90.0316C451.231 89.7364 451.106 89.4879 450.934 89.2549C450.871 89.2549 450.808 89.2549 450.746 89.317C450.621 89.317 450.496 89.3792 450.386 89.3792C449.713 89.6277 448.994 89.7364 448.259 89.7986C448.071 89.8607 447.899 89.8607 447.648 89.7986C447.523 89.7986 447.398 89.7364 447.226 89.6122C447.164 89.55 447.101 89.4879 447.038 89.3636C446.976 89.2393 446.913 89.1772 446.976 89.0685C446.976 88.8821 446.976 88.7733 447.038 88.7112C447.101 88.5869 447.164 88.5248 447.226 88.4782C447.226 88.416 447.226 88.416 447.289 88.3539C447.414 88.2296 447.539 88.0587 447.648 87.9345C447.883 87.6393 448.259 87.4529 448.618 87.2665C449.041 87.0801 449.463 87.0335 449.948 87.2043C450.37 87.3286 450.668 87.5616 450.98 87.8723C451.106 87.9966 451.231 88.1053 451.34 88.2917C451.465 88.2296 451.637 88.1675 451.763 88.1053C453.03 82.9324 454.375 77.6818 455.83 72.5709C457.347 67.2116 458.99 61.9765 460.742 56.6792C462.494 51.4441 464.496 46.2557 466.749 41.207C467.906 38.6749 469.174 36.1428 470.566 33.7349C471.238 32.5232 472.021 31.3271 472.928 30.2397C473.35 29.6338 473.835 29.0901 474.383 28.6086C474.93 28.0649 475.54 27.6454 476.26 27.2881H476.323C476.51 27.226 476.682 27.1639 476.933 27.1017C477.12 27.0396 477.355 27.0396 477.652 27.1017C477.949 27.1017 478.2 27.2881 478.372 27.459C478.622 27.692 478.732 27.8785 478.794 28.127C478.982 28.5464 479.044 28.9659 479.044 29.3232C479.044 29.6804 479.044 30.0533 478.982 30.4106C478.857 31.8553 478.56 33.2378 478.137 34.5582C477.292 37.2612 476.323 39.8555 475.228 42.3876C472.991 47.4984 470.441 52.4383 467.594 57.1919C466.201 59.5997 464.684 61.8833 463.104 64.229C461.649 66.4038 460.069 68.5009 458.489 70.6136C458.427 70.8 458.364 70.9709 458.301 71.1573C458.114 71.8253 457.942 72.4156 457.817 73.0836C456.549 77.775 455.329 82.4819 454.172 87.1733C456.049 86.4431 457.863 85.6043 459.694 84.7033C462.181 83.5071 464.606 82.1091 466.905 80.6644C471.567 77.6507 475.759 74.1088 479.451 70.0699C479.576 70.0078 479.701 69.9456 479.811 69.9456C479.936 69.9456 480.046 69.9456 480.171 70.0699C480.233 70.132 480.296 70.2563 480.296 70.365C480.296 70.4738 480.296 70.6136 480.233 70.6602C478.419 72.8816 476.416 74.8079 474.164 76.5633C471.974 78.241 469.674 79.81 467.312 81.2547C463.073 83.911 458.583 86.1946 453.968 88.1209C453.609 89.3792 453.296 90.7151 453.061 92.0355C453.311 92.8744 453.546 93.7754 453.796 94.6298C454.406 97.3328 454.954 100.113 455.251 102.816C455.673 105.582 455.861 108.362 455.924 111.127C456.049 113.892 456.049 116.673 455.986 119.438C455.924 122.203 455.799 124.984 455.501 127.749C455.376 129.132 455.142 130.514 454.891 131.897C454.641 133.279 454.281 134.662 453.796 136.045C453.546 136.712 453.249 137.365 452.826 138.033C452.529 138.81 451.919 139.415 451.199 139.897ZM451.434 137.179C451.794 136.635 452.044 136.091 452.279 135.485C452.764 134.289 453.124 132.953 453.436 131.633C453.687 130.312 453.921 128.976 454.109 127.594C454.782 122.172 455.016 116.704 454.844 111.221C454.844 108.455 454.657 105.737 454.297 102.972C454 100.269 453.577 97.5503 452.967 94.9094C452.905 94.5521 452.779 94.2414 452.733 93.8841C451.888 97.6745 451.09 101.465 450.433 105.271C449.4 110.692 448.556 116.114 447.883 121.52C447.586 124.223 447.398 127.003 447.336 129.706C447.336 131.027 447.336 132.409 447.461 133.745C447.523 135.066 447.821 136.34 448.243 137.474C448.478 138.017 448.79 138.375 449.088 138.499C449.275 138.561 449.385 138.623 449.635 138.561C449.76 138.561 449.87 138.499 449.995 138.499C450.12 138.437 450.23 138.375 450.292 138.313C450.715 138.095 451.074 137.722 451.434 137.179ZM450.355 88.6024C450.417 88.6024 450.417 88.6024 450.48 88.5403C450.23 88.2917 449.995 88.1209 449.698 87.9966C449.463 87.8723 449.213 87.9345 448.978 87.9966C448.728 88.1209 448.493 88.2917 448.305 88.5403C448.18 88.6646 448.071 88.7888 447.946 88.8355C447.946 88.8976 447.883 88.9597 447.883 89.0219C448.008 89.0219 448.118 89.0219 448.243 89.0219C448.916 88.9597 449.573 88.8355 450.245 88.6646C450.23 88.6024 450.292 88.6024 450.355 88.6024ZM459.866 66.0154C460.538 65.1766 461.196 64.2756 461.868 63.359C463.511 61.1376 465.028 58.8385 466.53 56.555C469.44 51.8636 472.052 47.0479 474.289 42.0458C475.447 39.5137 476.354 36.935 477.136 34.2786C477.496 33.0203 477.746 31.6844 477.856 30.364C477.918 29.696 477.856 29.1057 477.668 28.6241C477.668 28.4998 477.605 28.3756 477.543 28.3756V28.3134C477.48 28.3134 477.48 28.3134 477.48 28.3134H477.418C477.292 28.2513 477.058 28.3134 476.745 28.4377C475.712 29.0435 474.743 29.8824 473.96 31.0319C473.178 32.1193 472.443 33.2534 471.77 34.4029C470.441 36.8107 469.221 39.2807 468.188 41.8128C466.061 46.877 464.183 52.05 462.494 57.2851C461.634 60.1745 460.711 63.126 459.866 66.0154Z" fill="white" stroke="white" stroke-width="0.81" stroke-miterlimit="10"/>
</svg>
